<svg width="30" height="30" viewBox="0 0 30 30" fill="none" xmlns="http://www.w3.org/2000/svg">
<path d="M7.59863 28.1251C7.59907 27.628 7.7969 27.1514 8.14863 26.8001L17.7386 17.2101C18.0289 16.92 18.2592 16.5754 18.4163 16.1962C18.5734 15.817 18.6542 15.4106 18.6542 15.0001C18.6542 14.5897 18.5734 14.1833 18.4163 13.8041C18.2592 13.4249 18.0289 13.0803 17.7386 12.7901L8.16113 3.20639C7.81959 2.85276 7.6306 2.37914 7.63487 1.88752C7.63914 1.3959 7.83633 0.925624 8.18397 0.577984C8.53161 0.230343 9.00189 0.0331515 9.49351 0.0288795C9.98512 0.0246074 10.4588 0.213597 10.8124 0.555143L20.3899 10.1314C21.6777 11.4217 22.4009 13.1703 22.4009 14.9933C22.4009 16.8163 21.6777 18.5648 20.3899 19.8551L10.7999 29.4451C10.538 29.7072 10.2044 29.8858 9.84119 29.9584C9.47795 30.031 9.10133 29.9944 8.75887 29.8532C8.41641 29.712 8.12345 29.4725 7.91696 29.1649C7.71047 28.8574 7.5997 28.4956 7.59863 28.1251V28.1251Z" fill="white"/>
</svg>
