<svg width="30" height="30" viewBox="0 0 30 30" fill="none" xmlns="http://www.w3.org/2000/svg">
<path d="M22.4009 1.88122C22.4005 2.37834 22.2027 2.85493 21.8509 3.20622L12.2609 12.7962C11.9707 13.0864 11.7404 13.431 11.5833 13.8101C11.4262 14.1893 11.3454 14.5958 11.3454 15.0062C11.3454 15.4167 11.4262 15.8231 11.5833 16.2023C11.7404 16.5815 11.9707 16.926 12.2609 17.2162L21.8384 26.7937C22.18 27.1474 22.369 27.621 22.3647 28.1126C22.3604 28.6042 22.1632 29.0745 21.8156 29.4221C21.468 29.7698 20.9977 29.967 20.5061 29.9712C20.0144 29.9755 19.5408 29.7865 19.1872 29.445L9.60969 19.875C8.3219 18.5846 7.59863 16.8361 7.59863 15.0131C7.59863 13.1901 8.3219 11.4416 9.60969 10.1512L19.1997 0.554972C19.4619 0.292577 19.7961 0.113864 20.1599 0.0414461C20.5237 -0.0309716 20.9009 0.00616108 21.2436 0.148145C21.5863 0.29013 21.8792 0.530584 22.0852 0.839083C22.2912 1.14758 22.4011 1.51026 22.4009 1.88122V1.88122Z" fill="white"/>
</svg>
