<svg width="32" height="32" viewBox="0 0 32 32" fill="none" xmlns="http://www.w3.org/2000/svg">
<path d="M27.9998 5.33331H23.8665C23.2286 2.23144 20.4999 0.004 17.3331 0H14.6664C11.4996 0.004 8.771 2.23144 8.13313 5.33331H3.99982C3.26344 5.33331 2.6665 5.93025 2.6665 6.66663C2.6665 7.403 3.26344 8 3.99982 8H5.33313V25.3333C5.33757 29.0134 8.31975 31.9956 11.9998 32H19.9998C23.6799 31.9956 26.6621 29.0134 26.6665 25.3333V8H27.9998C28.7362 8 29.3331 7.40306 29.3331 6.66669C29.3331 5.93031 28.7362 5.33331 27.9998 5.33331ZM14.6665 22.6667C14.6665 23.4031 14.0696 24 13.3332 24C12.5968 24 11.9998 23.4031 11.9998 22.6667V14.6667C11.9998 13.9303 12.5968 13.3334 13.3331 13.3334C14.0695 13.3334 14.6664 13.9303 14.6664 14.6667V22.6667H14.6665ZM19.9998 22.6667C19.9998 23.4031 19.4029 24 18.6665 24C17.9301 24 17.3332 23.4031 17.3332 22.6667V14.6667C17.3332 13.9303 17.9301 13.3334 18.6665 13.3334C19.4029 13.3334 19.9998 13.9303 19.9998 14.6667V22.6667ZM10.8945 5.33331C11.4616 3.73637 12.9719 2.66869 14.6665 2.66663H17.3332C19.0278 2.66869 20.5381 3.73637 21.1052 5.33331H10.8945Z" fill="white"/>
</svg>
