<svg width="10" height="16" viewBox="0 0 10 16" fill="none" xmlns="http://www.w3.org/2000/svg">
<mask id="path-1-outside-1_179_44" maskUnits="userSpaceOnUse" x="-1" y="-1" width="12" height="18" fill="black">
<rect fill="white" x="-1" y="-1" width="12" height="18"/>
<path d="M4.63636 15.4545V0.90909H5.56818V15.4545H4.63636ZM7.77273 5.27273C7.70455 4.69697 7.42803 4.25 6.94318 3.93182C6.45833 3.61364 5.86364 3.45455 5.15909 3.45455C4.64394 3.45455 4.19318 3.53788 3.80682 3.70455C3.42424 3.87121 3.125 4.10038 2.90909 4.39205C2.69697 4.68371 2.59091 5.01515 2.59091 5.38636C2.59091 5.69697 2.66477 5.96401 2.8125 6.1875C2.96402 6.4072 3.1572 6.59091 3.39205 6.73864C3.62689 6.88258 3.87311 7.00189 4.13068 7.09659C4.38826 7.1875 4.625 7.26136 4.84091 7.31818L6.02273 7.63636C6.32576 7.71591 6.66288 7.82576 7.03409 7.96591C7.40909 8.10606 7.76705 8.29735 8.10795 8.53977C8.45265 8.77841 8.73674 9.08523 8.96023 9.46023C9.18371 9.83523 9.29545 10.2955 9.29545 10.8409C9.29545 11.4697 9.13068 12.0379 8.80114 12.5455C8.47538 13.053 7.99811 13.4564 7.36932 13.7557C6.74432 14.0549 5.98485 14.2045 5.09091 14.2045C4.25758 14.2045 3.53598 14.0701 2.92614 13.8011C2.32008 13.5322 1.8428 13.1572 1.49432 12.6761C1.14962 12.1951 0.954545 11.6364 0.909091 11H2.36364C2.40152 11.4394 2.54924 11.803 2.80682 12.0909C3.06818 12.375 3.39773 12.5871 3.79545 12.7273C4.19697 12.8636 4.62879 12.9318 5.09091 12.9318C5.62879 12.9318 6.11174 12.8447 6.53977 12.6705C6.9678 12.4924 7.30682 12.2462 7.55682 11.9318C7.80682 11.6136 7.93182 11.2424 7.93182 10.8182C7.93182 10.4318 7.82386 10.1174 7.60795 9.875C7.39205 9.63258 7.10795 9.43561 6.75568 9.28409C6.40341 9.13258 6.02273 9 5.61364 8.88636L4.18182 8.47727C3.27273 8.21591 2.55303 7.8428 2.02273 7.35795C1.49242 6.87311 1.22727 6.23864 1.22727 5.45455C1.22727 4.80303 1.40341 4.23485 1.75568 3.75C2.11174 3.26136 2.58902 2.88258 3.1875 2.61364C3.78977 2.34091 4.46212 2.20455 5.20455 2.20455C5.95455 2.20455 6.62121 2.33901 7.20455 2.60795C7.78788 2.87311 8.25 3.23674 8.59091 3.69886C8.93561 4.16098 9.11742 4.68561 9.13636 5.27273H7.77273Z"/>
</mask>
<path d="M4.63636 15.4545V0.90909H5.56818V15.4545H4.63636ZM7.77273 5.27273C7.70455 4.69697 7.42803 4.25 6.94318 3.93182C6.45833 3.61364 5.86364 3.45455 5.15909 3.45455C4.64394 3.45455 4.19318 3.53788 3.80682 3.70455C3.42424 3.87121 3.125 4.10038 2.90909 4.39205C2.69697 4.68371 2.59091 5.01515 2.59091 5.38636C2.59091 5.69697 2.66477 5.96401 2.8125 6.1875C2.96402 6.4072 3.1572 6.59091 3.39205 6.73864C3.62689 6.88258 3.87311 7.00189 4.13068 7.09659C4.38826 7.1875 4.625 7.26136 4.84091 7.31818L6.02273 7.63636C6.32576 7.71591 6.66288 7.82576 7.03409 7.96591C7.40909 8.10606 7.76705 8.29735 8.10795 8.53977C8.45265 8.77841 8.73674 9.08523 8.96023 9.46023C9.18371 9.83523 9.29545 10.2955 9.29545 10.8409C9.29545 11.4697 9.13068 12.0379 8.80114 12.5455C8.47538 13.053 7.99811 13.4564 7.36932 13.7557C6.74432 14.0549 5.98485 14.2045 5.09091 14.2045C4.25758 14.2045 3.53598 14.0701 2.92614 13.8011C2.32008 13.5322 1.8428 13.1572 1.49432 12.6761C1.14962 12.1951 0.954545 11.6364 0.909091 11H2.36364C2.40152 11.4394 2.54924 11.803 2.80682 12.0909C3.06818 12.375 3.39773 12.5871 3.79545 12.7273C4.19697 12.8636 4.62879 12.9318 5.09091 12.9318C5.62879 12.9318 6.11174 12.8447 6.53977 12.6705C6.9678 12.4924 7.30682 12.2462 7.55682 11.9318C7.80682 11.6136 7.93182 11.2424 7.93182 10.8182C7.93182 10.4318 7.82386 10.1174 7.60795 9.875C7.39205 9.63258 7.10795 9.43561 6.75568 9.28409C6.40341 9.13258 6.02273 9 5.61364 8.88636L4.18182 8.47727C3.27273 8.21591 2.55303 7.8428 2.02273 7.35795C1.49242 6.87311 1.22727 6.23864 1.22727 5.45455C1.22727 4.80303 1.40341 4.23485 1.75568 3.75C2.11174 3.26136 2.58902 2.88258 3.1875 2.61364C3.78977 2.34091 4.46212 2.20455 5.20455 2.20455C5.95455 2.20455 6.62121 2.33901 7.20455 2.60795C7.78788 2.87311 8.25 3.23674 8.59091 3.69886C8.93561 4.16098 9.11742 4.68561 9.13636 5.27273H7.77273Z" fill="#FFD400"/>
<path d="M4.63636 15.4545H3.63636V16.4545H4.63636V15.4545ZM4.63636 0.90909V-0.09091H3.63636V0.90909H4.63636ZM5.56818 0.90909H6.56818V-0.09091H5.56818V0.90909ZM5.56818 15.4545V16.4545H6.56818V15.4545H5.56818ZM7.77273 5.27273L6.77967 5.39033L6.88416 6.27273H7.77273V5.27273ZM6.94318 3.93182L6.39453 4.76787L6.39453 4.76787L6.94318 3.93182ZM3.80682 3.70455L3.41072 2.78633L3.40743 2.78776L3.80682 3.70455ZM2.90909 4.39205L2.10532 3.79705L2.10035 3.80387L2.90909 4.39205ZM2.8125 6.1875L1.97828 6.73893L1.9837 6.74714L1.98929 6.75523L2.8125 6.1875ZM3.39205 6.73864L2.85956 7.58515L2.86948 7.59124L3.39205 6.73864ZM4.13068 7.09659L3.78559 8.03525L3.79786 8.03958L4.13068 7.09659ZM4.84091 7.31818L5.10089 6.35255L5.0954 6.35111L4.84091 7.31818ZM6.02273 7.63636L5.76275 8.602L5.76883 8.60359L6.02273 7.63636ZM7.03409 7.96591L6.68087 8.90146L6.68401 8.90263L7.03409 7.96591ZM8.10795 8.53977L7.52839 9.35479L7.53874 9.36196L8.10795 8.53977ZM8.96023 9.46023L9.81925 8.94829L9.81925 8.94828L8.96023 9.46023ZM8.80114 12.5455L7.9624 12.0009L7.95955 12.0053L8.80114 12.5455ZM7.36932 13.7557L6.93959 12.8527L6.93748 12.8537L7.36932 13.7557ZM2.92614 13.8011L2.52053 14.7152L2.52264 14.7161L2.92614 13.8011ZM1.49432 12.6761L0.68144 13.2586L0.684481 13.2628L1.49432 12.6761ZM0.909091 11V10H-0.164885L-0.0883678 11.0712L0.909091 11ZM2.36364 11L3.35994 10.9141L3.28114 10H2.36364V11ZM2.80682 12.0909L2.06151 12.7578L2.07089 12.768L2.80682 12.0909ZM3.79545 12.7273L3.46308 13.6705L3.47387 13.6742L3.79545 12.7273ZM6.53977 12.6705L6.91682 13.5967L6.92381 13.5938L6.53977 12.6705ZM7.55682 11.9318L8.33954 12.5542L8.34314 12.5496L7.55682 11.9318ZM7.60795 9.875L8.35472 9.20991L8.35472 9.20991L7.60795 9.875ZM6.75568 9.28409L6.36057 10.2027L6.36057 10.2027L6.75568 9.28409ZM5.61364 8.88636L5.33891 9.84791L5.34599 9.84988L5.61364 8.88636ZM4.18182 8.47727L3.90551 9.43834L3.9071 9.4388L4.18182 8.47727ZM2.02273 7.35795L1.34796 8.09598L1.34796 8.09598L2.02273 7.35795ZM1.75568 3.75L0.947487 3.16108L0.946673 3.1622L1.75568 3.75ZM3.1875 2.61364L3.59739 3.52578L3.60001 3.52459L3.1875 2.61364ZM7.20455 2.60795L6.78586 3.5161L6.79074 3.51832L7.20455 2.60795ZM8.59091 3.69886L7.78617 4.29252L7.78934 4.29676L8.59091 3.69886ZM9.13636 5.27273V6.27273H10.1691L10.1358 5.24049L9.13636 5.27273ZM5.63636 15.4545V0.90909H3.63636V15.4545H5.63636ZM4.63636 1.90909H5.56818V-0.09091H4.63636V1.90909ZM4.56818 0.90909V15.4545H6.56818V0.90909H4.56818ZM5.56818 14.4545H4.63636V16.4545H5.56818V14.4545ZM8.76579 5.15513C8.66286 4.28591 8.2236 3.57599 7.49184 3.09577L6.39453 4.76787C6.63246 4.92401 6.74624 5.10803 6.77967 5.39033L8.76579 5.15513ZM7.49184 3.09577C6.81192 2.64957 6.01631 2.45455 5.15909 2.45455V4.45455C5.71096 4.45455 6.10475 4.5777 6.39453 4.76787L7.49184 3.09577ZM5.15909 2.45455C4.53749 2.45455 3.94688 2.55505 3.41073 2.78633L4.20291 4.62276C4.43948 4.52071 4.75039 4.45455 5.15909 4.45455V2.45455ZM3.40743 2.78776C2.88863 3.01378 2.4403 3.34459 2.10535 3.79707L3.71283 4.98702C3.8097 4.85617 3.95986 4.72865 4.20621 4.62133L3.40743 2.78776ZM2.10035 3.80387C1.76008 4.27175 1.59091 4.81044 1.59091 5.38636H3.59091C3.59091 5.21986 3.63386 5.09568 3.71783 4.98022L2.10035 3.80387ZM1.59091 5.38636C1.59091 5.86102 1.70602 6.32704 1.97828 6.73893L3.64672 5.63607C3.62353 5.60099 3.59091 5.53291 3.59091 5.38636H1.59091ZM1.98929 6.75523C2.22087 7.09103 2.51457 7.36806 2.85959 7.5851L3.9245 5.89218C3.79983 5.81375 3.70716 5.72336 3.63571 5.61977L1.98929 6.75523ZM2.86948 7.59124C3.16031 7.76949 3.46596 7.91765 3.78562 8.03517L4.47575 6.15801C4.28026 6.08614 4.09348 5.99566 3.91461 5.88603L2.86948 7.59124ZM3.79786 8.03958C4.07576 8.13766 4.33903 8.22015 4.58642 8.28526L5.0954 6.35111C4.91097 6.30257 4.70076 6.23734 4.4635 6.1536L3.79786 8.03958ZM4.58094 8.2838L5.76275 8.60198L6.2827 6.67075L5.10088 6.35257L4.58094 8.2838ZM5.76883 8.60359C6.03077 8.67235 6.33408 8.77052 6.68088 8.90145L7.38731 7.03037C6.99168 6.881 6.62075 6.75946 6.27663 6.66913L5.76883 8.60359ZM6.68401 8.90263C6.97397 9.011 7.25519 9.16043 7.52843 9.35473L8.68748 7.72482C8.2789 7.43427 7.84421 7.20112 7.38418 7.02919L6.68401 8.90263ZM7.53874 9.36196C7.76087 9.51574 7.94791 9.71494 8.10121 9.97217L9.81925 8.94828C9.52558 8.45552 9.14443 8.04108 8.67717 7.71758L7.53874 9.36196ZM8.10121 9.97217C8.21201 10.1581 8.29545 10.4311 8.29545 10.8409H10.2955C10.2955 10.1598 10.1554 9.51237 9.81925 8.94829L8.10121 9.97217ZM8.29545 10.8409C8.29545 11.2844 8.18245 11.662 7.96241 12.0009L9.63987 13.09C10.0789 12.4138 10.2955 11.655 10.2955 10.8409H8.29545ZM7.95955 12.0053C7.74933 12.3329 7.42649 12.621 6.9396 12.8527L7.79904 14.6586C8.56972 14.2919 9.20142 13.7732 9.64272 13.0856L7.95955 12.0053ZM6.93748 12.8537C6.48049 13.0725 5.87718 13.2045 5.09091 13.2045V15.2045C6.09252 15.2045 7.00814 15.0373 7.80116 14.6576L6.93748 12.8537ZM5.09091 13.2045C4.36282 13.2045 3.78477 13.0869 3.32964 12.8862L2.52264 14.7161C3.2872 15.0533 4.15233 15.2045 5.09091 15.2045V13.2045ZM3.33174 12.8871C2.86777 12.6812 2.53749 12.4116 2.30416 12.0895L0.684481 13.2628C1.14812 13.9028 1.77238 14.3832 2.52053 14.7152L3.33174 12.8871ZM2.30719 12.0937C2.07843 11.7744 1.93992 11.3959 1.90655 10.9288L-0.0883678 11.0712C-0.0308242 11.8769 0.220813 12.6157 0.681451 13.2586L2.30719 12.0937ZM0.909091 12H2.36364V10H0.909091V12ZM1.36733 11.0859C1.42105 11.7091 1.63964 12.2861 2.06158 12.7577L3.55206 11.4241C3.45884 11.3199 3.38198 11.1697 3.35994 10.9141L1.36733 11.0859ZM2.07089 12.768C2.453 13.1833 2.92568 13.4811 3.4631 13.6704L4.12781 11.7841C3.86977 11.6932 3.68337 11.5667 3.54275 11.4139L2.07089 12.768ZM3.47387 13.6742C3.98784 13.8487 4.52921 13.9318 5.09091 13.9318V11.9318C4.72837 11.9318 4.4061 11.8786 4.11704 11.7804L3.47387 13.6742ZM5.09091 13.9318C5.73715 13.9318 6.3511 13.8269 6.91681 13.5967L6.16274 11.7443C5.87238 11.8625 5.52042 11.9318 5.09091 11.9318V13.9318ZM6.92381 13.5938C7.48375 13.3609 7.96898 13.0202 8.33952 12.5542L6.77411 11.3094C6.64465 11.4722 6.45186 11.624 6.15574 11.7471L6.92381 13.5938ZM8.34314 12.5496C8.73861 12.0463 8.93182 11.4548 8.93182 10.8182H6.93182C6.93182 11.03 6.87503 11.181 6.7705 11.314L8.34314 12.5496ZM8.93182 10.8182C8.93182 10.2358 8.76373 9.66915 8.35472 9.20991L6.86119 10.5401C6.884 10.5657 6.93182 10.6279 6.93182 10.8182H8.93182ZM8.35472 9.20991C8.02548 8.84024 7.61331 8.56439 7.15079 8.36546L6.36057 10.2027C6.6026 10.3068 6.75861 10.4249 6.86119 10.5401L8.35472 9.20991ZM7.15079 8.36546C6.75297 8.19435 6.32928 8.04729 5.88128 7.92285L5.34599 9.84988C5.71618 9.95271 6.05385 10.0708 6.36057 10.2027L7.15079 8.36546ZM5.88836 7.92484L4.45654 7.51575L3.9071 9.4388L5.33892 9.84789L5.88836 7.92484ZM4.45813 7.5162C3.65226 7.28452 3.0838 6.97312 2.6975 6.61993L1.34796 8.09598C2.02226 8.71248 2.8932 9.1473 3.90551 9.43834L4.45813 7.5162ZM2.6975 6.61993C2.39462 6.34301 2.22727 5.9865 2.22727 5.45455H0.227273C0.227273 6.49078 0.59023 7.4032 1.34796 8.09598L2.6975 6.61993ZM2.22727 5.45455C2.22727 4.99481 2.34749 4.63674 2.56469 4.3378L0.946673 3.1622C0.459326 3.83296 0.227273 4.61125 0.227273 5.45455H2.22727ZM2.56388 4.33892C2.8089 4.00266 3.14359 3.72969 3.59738 3.52577L2.77762 1.7015C2.03444 2.03546 1.41459 2.52006 0.947488 3.16108L2.56388 4.33892ZM3.60001 3.52459C4.0576 3.31738 4.58685 3.20455 5.20455 3.20455V1.20455C4.33739 1.20455 3.52195 1.36444 2.77499 1.70268L3.60001 3.52459ZM5.20455 3.20455C5.83404 3.20455 6.35402 3.31699 6.78586 3.51609L7.62323 1.69982C6.8884 1.36104 6.07506 1.20455 5.20455 1.20455V3.20455ZM6.79074 3.51832C7.23724 3.72127 7.55778 3.98289 7.78618 4.29251L9.39563 3.10521C8.94222 2.49059 8.33852 2.02494 7.61835 1.69759L6.79074 3.51832ZM7.78934 4.29676C8.00934 4.59171 8.1244 4.91807 8.13688 5.30497L10.1358 5.24049C10.1104 4.45315 9.86187 3.73026 9.39248 3.10097L7.78934 4.29676ZM9.13636 4.27273H7.77273V6.27273H9.13636V4.27273Z" fill="black" mask="url(#path-1-outside-1_179_44)"/>
</svg>
