<svg width="30" height="30" viewBox="0 0 30 30" fill="none" xmlns="http://www.w3.org/2000/svg">
<path d="M22.994 8.77765C22.0006 8.7796 21.1929 7.97525 21.1909 6.98185C21.189 5.98845 21.9933 5.18071 22.9872 5.17877C23.9811 5.17683 24.7888 5.98164 24.7907 6.97505C24.7922 7.96845 23.9879 8.77571 22.994 8.77765Z" fill="white"/>
<path fill-rule="evenodd" clip-rule="evenodd" d="M15.0143 22.7013C10.7614 22.7095 7.30638 19.2686 7.29813 15.0146C7.28985 10.7615 10.7317 7.30602 14.9847 7.29775C19.2387 7.28949 22.6941 10.7324 22.7024 14.9849C22.7107 19.239 19.2678 22.693 15.0143 22.7013ZM14.99 10.0004C12.2296 10.0053 9.99493 12.2482 9.99979 15.0092C10.0051 17.7707 12.2485 20.0049 15.009 19.9996C17.7705 19.9942 20.0051 17.7518 19.9997 14.9903C19.9944 12.2288 17.751 9.9951 14.99 10.0004Z" fill="white"/>
<path fill-rule="evenodd" clip-rule="evenodd" d="M5.149 0.808099C6.10158 0.434845 7.19167 0.179203 8.78769 0.103873C10.3876 0.0270908 10.8984 0.00958878 14.9711 0.00181578C19.0448 -0.00595722 19.5555 0.00958577 21.1554 0.0805418C22.752 0.149554 23.8426 0.401311 24.7971 0.77068C25.7846 1.15122 26.6225 1.66348 27.4574 2.49503C28.2924 3.32756 28.8066 4.16253 29.192 5.14863C29.5647 6.10218 29.8204 7.19132 29.8962 8.78834C29.972 10.3878 29.9905 10.8981 29.9982 14.9713C30.006 19.0441 29.9895 19.5553 29.9195 21.1563C29.85 22.7518 29.5988 23.8429 29.2294 24.7969C28.8479 25.7845 28.3366 26.6224 27.505 27.4573C26.6735 28.2928 25.8376 28.8065 24.8515 29.1924C23.8979 29.5647 22.8088 29.8203 21.2128 29.8966C19.6129 29.9724 19.1021 29.9904 15.028 29.9982C10.9557 30.006 10.445 29.9904 8.84506 29.9199C7.24853 29.85 6.15746 29.5987 5.20344 29.2298C4.21589 28.8478 3.37803 28.337 2.54307 27.505C1.70764 26.6729 1.19298 25.8375 0.808073 24.8514C0.434822 23.8983 0.180134 22.8087 0.103841 21.2131C0.0275448 19.6127 0.00956883 19.1014 0.00179883 15.0287C-0.00600117 10.9554 0.0100458 10.4451 0.0800208 8.84519C0.1505 7.24819 0.400796 6.15758 0.770162 5.20257C1.15166 4.21549 1.66293 3.3781 2.49546 2.54266C3.327 1.70771 4.16291 1.19252 5.149 0.808099ZM6.17692 26.7099C6.70617 26.9135 7.50028 27.1565 8.96268 27.2202C10.5451 27.2887 11.0189 27.3038 15.0231 27.296C19.0287 27.2887 19.5026 27.2717 21.0845 27.1973C22.5454 27.1278 23.3395 26.8819 23.8673 26.6758C24.5677 26.4022 25.0663 26.0751 25.5902 25.5507C26.1141 25.0244 26.4383 24.5243 26.7095 23.8239C26.9136 23.2942 27.1561 22.4996 27.2198 21.0372C27.2893 19.4557 27.3038 18.9814 27.2961 14.9762C27.2888 10.972 27.2718 10.4976 27.1965 8.91567C27.1274 7.45424 26.882 6.6601 26.6754 6.13279C26.4018 5.43149 26.0757 4.93382 25.5499 4.40941C25.024 3.88501 24.5239 3.56181 23.8226 3.29062C23.2943 3.08602 22.4992 2.84398 21.0378 2.78032C19.4554 2.71082 18.9811 2.69671 14.976 2.7045C10.9718 2.71227 10.4979 2.72831 8.91601 2.80316C7.45412 2.87265 6.66096 3.11808 6.13218 3.32465C5.43234 3.59826 4.93371 3.9234 4.40932 4.44975C3.88588 4.97609 3.56172 5.47522 3.29055 6.17702C3.08741 6.7058 2.84293 7.5009 2.78025 8.96233C2.71122 10.5448 2.69666 11.0191 2.70443 15.0233C2.71173 19.0285 2.72873 19.5029 2.80309 21.0838C2.87162 22.5462 3.11898 23.3394 3.32457 23.8687C3.59818 24.568 3.9243 25.0667 4.44966 25.5911C4.97601 26.1135 5.4761 26.4387 6.17692 26.7099Z" fill="white"/>
</svg>
