<svg width="24" height="24" viewBox="0 0 24 24" fill="none" xmlns="http://www.w3.org/2000/svg">
<g clip-path="url(#clip0_118_94)">
<path d="M22.8332 1.16704C22.0743 0.442418 21.0654 0.0380859 20.0162 0.0380859C18.9669 0.0380859 17.958 0.442418 17.1992 1.16704L7.35018 11.017C7.23518 11.01 7.12118 11 7.00518 11C6.21784 10.9979 5.4379 11.152 4.71046 11.4532C3.98302 11.7544 3.32253 12.1969 2.76718 12.755C0.716183 14.806 0.207184 21.048 0.125184 22.279L0.0131836 23.987L1.72118 23.875C2.95118 23.793 9.19319 23.285 11.2442 21.234C11.8371 20.6375 12.297 19.9223 12.5938 19.1353C12.8906 18.3484 13.0175 17.5075 12.9662 16.668L22.8332 6.80004C23.5795 6.05269 23.9986 5.0397 23.9986 3.98354C23.9986 2.92738 23.5795 1.9144 22.8332 1.16704ZM9.12319 19.112C8.44519 19.79 5.84718 20.4 3.28718 20.712C3.60118 18.152 4.21018 15.554 4.88718 14.876C5.16357 14.5904 5.49404 14.3627 5.85933 14.2061C6.22462 14.0495 6.61743 13.9672 7.01486 13.9639C7.41229 13.9607 7.80639 14.0365 8.1742 14.1871C8.54201 14.3377 8.87617 14.56 9.1572 14.841C9.43824 15.1221 9.66052 15.4562 9.81111 15.824C9.9617 16.1918 10.0376 16.5859 10.0343 16.9834C10.0311 17.3808 9.94873 17.7736 9.79213 18.1389C9.63553 18.5042 9.40779 18.8347 9.12218 19.111L9.12319 19.112ZM20.7122 4.67904L11.8692 13.522C11.6826 13.2494 11.4735 12.9929 11.2442 12.755C11.0094 12.524 10.7566 12.312 10.4882 12.121L19.3202 3.28904C19.5077 3.11005 19.757 3.01019 20.0162 3.01019C20.2754 3.01019 20.5247 3.11005 20.7122 3.28904C20.8962 3.47351 20.9996 3.72346 20.9996 3.98404C20.9996 4.24463 20.8962 4.49457 20.7122 4.67904Z" fill="white"/>
</g>
<defs>
<clipPath id="clip0_118_94">
<rect width="24" height="24" fill="white"/>
</clipPath>
</defs>
</svg>
