<svg width="86" height="86" viewBox="0 0 86 86" fill="none" xmlns="http://www.w3.org/2000/svg">
<g clip-path="url(#clip0_129_178)">
<path d="M35.3971 64.9372C36.3954 65.9361 37.5808 66.7286 38.8855 67.2693C40.1902 67.8099 41.5886 68.0882 43.0009 68.0882C44.4132 68.0882 45.8116 67.8099 47.1163 67.2693C48.421 66.7286 49.6064 65.9361 50.6047 64.9372L62.1108 53.4311C62.7277 52.7488 63.0586 51.8554 63.035 50.9359C63.0114 50.0163 62.6351 49.1411 61.984 48.4914C61.3329 47.8416 60.4568 47.4672 59.5372 47.4455C58.6177 47.4238 57.725 47.7567 57.044 48.375L46.5591 58.8634L46.5842 3.58333C46.5842 2.63297 46.2067 1.72154 45.5347 1.04953C44.8627 0.377529 43.9513 0 43.0009 0V0C42.0505 0 41.1391 0.377529 40.4671 1.04953C39.7951 1.72154 39.4176 2.63297 39.4176 3.58333L39.3853 58.7953L28.9578 48.375C28.2854 47.7031 27.3737 47.3258 26.4231 47.3262C25.4726 47.3265 24.5611 47.7044 23.8892 48.3768C23.2173 49.0492 22.84 49.9609 22.8403 50.9115C22.8407 51.862 23.2186 52.7735 23.891 53.4454L35.3971 64.9372Z" fill="#F7FBFF"/>
<path d="M82.4167 57.3328C81.4663 57.3328 80.5549 57.7103 79.8829 58.3824C79.2109 59.0544 78.8333 59.9658 78.8333 60.9162V75.2495C78.8333 76.1998 78.4558 77.1113 77.7838 77.7833C77.1118 78.4553 76.2004 78.8328 75.25 78.8328H10.75C9.79964 78.8328 8.88821 78.4553 8.2162 77.7833C7.5442 77.1113 7.16667 76.1998 7.16667 75.2495V60.9162C7.16667 59.9658 6.78914 59.0544 6.11713 58.3824C5.44513 57.7103 4.53369 57.3328 3.58333 57.3328C2.63297 57.3328 1.72154 57.7103 1.04953 58.3824C0.377529 59.0544 0 59.9658 0 60.9162L0 75.2495C0 78.1005 1.13259 80.8348 3.1486 82.8508C5.16462 84.8669 7.89892 85.9994 10.75 85.9994H75.25C78.1011 85.9994 80.8354 84.8669 82.8514 82.8508C84.8674 80.8348 86 78.1005 86 75.2495V60.9162C86 59.9658 85.6225 59.0544 84.9505 58.3824C84.2785 57.7103 83.367 57.3328 82.4167 57.3328Z" fill="#F7FBFF"/>
</g>
<defs>
<clipPath id="clip0_129_178">
<rect width="86" height="86" fill="white"/>
</clipPath>
</defs>
</svg>
