<svg width="30" height="30" viewBox="0 0 30 30" fill="none" xmlns="http://www.w3.org/2000/svg">
<g clip-path="url(#clip0_202_213)">
<path d="M18.7499 8.74905H12.7124V6.76655C12.7123 6.27218 12.5656 5.78893 12.2909 5.37791C12.0162 4.96689 11.6258 4.64654 11.169 4.45736C10.7123 4.26819 10.2097 4.21868 9.72482 4.3151C9.23994 4.41152 8.79453 4.64953 8.4449 4.99906L1.0949 12.3478C0.391881 13.051 -0.00305176 14.0047 -0.00305176 14.999C-0.00305176 15.9934 0.391881 16.9471 1.0949 17.6503L8.4449 24.999C8.79453 25.3486 9.23994 25.5866 9.72482 25.683C10.2097 25.7794 10.7123 25.7299 11.169 25.5407C11.6258 25.3515 12.0162 25.0312 12.2909 24.6202C12.5656 24.2092 12.7123 23.7259 12.7124 23.2315V21.249H19.9999C21.9884 21.251 23.8949 22.0418 25.301 23.4479C26.7071 24.854 27.4979 26.7605 27.4999 28.749C27.4999 29.0805 27.6316 29.3985 27.866 29.6329C28.1004 29.8673 28.4184 29.999 28.7499 29.999C29.0814 29.999 29.3994 29.8673 29.6338 29.6329C29.8682 29.3985 29.9999 29.0805 29.9999 28.749V19.999C29.9966 17.0164 28.8103 14.1568 26.7012 12.0477C24.5921 9.93869 21.7326 8.75236 18.7499 8.74905Z" fill="white"/>
</g>
<defs>
<clipPath id="clip0_202_213">
<rect width="30" height="30" fill="white"/>
</clipPath>
</defs>
</svg>
