<svg width="30" height="30" viewBox="0 0 30 30" fill="none" xmlns="http://www.w3.org/2000/svg">
<g clip-path="url(#clip0_555_99)">
<path d="M30 15.2101C30.0002 15.5811 29.8903 15.9437 29.6843 16.2522C29.4783 16.5607 29.1854 16.8012 28.8426 16.9432C28.4999 17.0851 28.1228 17.1223 27.759 17.0499C27.3951 16.9774 27.061 16.7987 26.7987 16.5363L17.21 6.94635C16.9198 6.65608 16.5753 6.42582 16.1961 6.26872C15.8169 6.11163 15.4104 6.03077 15 6.03077C14.5895 6.03077 14.1831 6.11163 13.8039 6.26872C13.4247 6.42582 13.0802 6.65608 12.79 6.94635L3.20124 16.5363C3.02707 16.7105 2.82031 16.8487 2.59275 16.9429C2.36519 17.0372 2.1213 17.0857 1.87499 17.0857C1.37755 17.0857 0.900484 16.8881 0.54874 16.5363C0.196997 16.1846 -0.000610352 15.7075 -0.000610352 15.2101C-0.000610352 14.9638 0.0479035 14.7199 0.142161 14.4923C0.236419 14.2648 0.374575 14.058 0.54874 13.8838L10.1387 4.2951C11.428 3.00586 13.1767 2.28157 15 2.28157C16.8233 2.28157 18.5719 3.00586 19.8612 4.2951L29.4512 13.8838C29.6253 14.058 29.7634 14.2648 29.8575 14.4924C29.9517 14.7199 30.0001 14.9638 30 15.2101V15.2101Z" fill="white"/>
<path d="M29.9999 27.141C29.9998 27.5119 29.8898 27.8744 29.6837 28.1827C29.4776 28.491 29.1847 28.7313 28.842 28.8731C28.4993 29.0149 28.1223 29.0519 27.7586 28.9795C27.3949 28.907 27.0608 28.7283 26.7987 28.466L15.4424 17.1098C15.3844 17.0516 15.3154 17.0054 15.2395 16.9739C15.1635 16.9424 15.0821 16.9262 14.9999 16.9262C14.9177 16.9262 14.8363 16.9424 14.7604 16.9739C14.6844 17.0054 14.6155 17.0516 14.5574 17.1098L3.20117 28.466C2.84959 28.8178 2.37268 29.0154 1.87536 29.0156C1.37803 29.0157 0.901033 28.8182 0.54929 28.4666C0.197546 28.1151 -0.000126878 27.6382 -0.000244088 27.1408C-0.000361299 26.6435 0.197087 26.1665 0.548665 25.8148L11.9062 14.4573C12.7277 13.6392 13.8399 13.1799 14.9993 13.1799C16.1587 13.1799 17.2709 13.6392 18.0924 14.4573L29.4512 25.8148C29.6253 25.989 29.7633 26.1958 29.8575 26.4233C29.9516 26.6509 30 26.8948 29.9999 27.141V27.141Z" fill="white"/>
</g>
<defs>
<clipPath id="clip0_555_99">
<rect width="30" height="30" fill="white" transform="matrix(0 -1 1 0 0 30)"/>
</clipPath>
</defs>
</svg>
