<svg width="24" height="24" viewBox="0 0 24 24" fill="none" xmlns="http://www.w3.org/2000/svg">
<g clip-path="url(#clip0_59_167)">
<path d="M18.9 16.7767C20.4965 14.6431 21.2255 11.9839 20.9403 9.33443C20.6551 6.68495 19.3767 4.24188 17.3627 2.49701C15.3486 0.75214 12.7483 -0.16498 10.0852 -0.0697374C7.42209 0.0255053 4.89395 1.12604 3.00966 3.01033C1.12537 4.89462 0.0248339 7.42277 -0.0704088 10.0859C-0.165652 12.7489 0.751469 15.3492 2.49634 17.3633C4.24121 19.3774 6.68427 20.6557 9.33375 20.941C11.9832 21.2262 14.6424 20.4972 16.776 18.9007L21.876 24.0007L24 21.8807L18.9 16.7767ZM10.5 18.0007C9.01664 18.0007 7.56659 17.5608 6.33322 16.7367C5.09985 15.9126 4.13856 14.7412 3.5709 13.3708C3.00324 12.0003 2.85472 10.4923 3.14411 9.03749C3.4335 7.58263 4.1478 6.24626 5.19669 5.19737C6.24559 4.14847 7.58196 3.43417 9.03682 3.14478C10.4917 2.85539 11.9997 3.00391 13.3701 3.57157C14.7406 4.13923 15.9119 5.10052 16.736 6.33389C17.5601 7.56726 18 9.01731 18 10.5007C17.9981 12.4892 17.2074 14.3958 15.8013 15.8019C14.3951 17.208 12.4886 17.9988 10.5 18.0007Z" fill="white"/>
</g>
<defs>
<clipPath id="clip0_59_167">
<rect width="24" height="24" fill="white"/>
</clipPath>
</defs>
</svg>
  