<svg width="25" height="25" viewBox="0 0 25 25" fill="none" xmlns="http://www.w3.org/2000/svg">
<g clip-path="url(#clip0_202_80)">
<path d="M14.7097 12.5002L24.5427 2.66834C25.1531 2.05796 25.1531 1.06835 24.5427 0.458026C23.9323 -0.15235 22.9427 -0.15235 22.3324 0.458026L12.5005 10.2909L2.66858 0.458026C2.0582 -0.15235 1.0686 -0.15235 0.45827 0.458026C-0.152057 1.0684 -0.152106 2.05801 0.45827 2.66834L10.2912 12.5002L0.45827 22.3321C-0.152106 22.9425 -0.152106 23.9321 0.45827 24.5424C1.06865 25.1528 2.05825 25.1528 2.66858 24.5424L12.5005 14.7095L22.3323 24.5424C22.9427 25.1528 23.9323 25.1528 24.5426 24.5424C25.153 23.9321 25.153 22.9425 24.5426 22.3321L14.7097 12.5002Z" fill="white"/>
</g>
<defs>
<clipPath id="clip0_202_80">
<rect width="25" height="25" fill="white"/>
</clipPath>
</defs>
</svg>
